<svg width="42" height="42" viewBox="0 0 42 42" fill="none" xmlns="http://www.w3.org/2000/svg">
<path d="M26.6477 31.4566L20.3928 22.3688L19.5022 21.0752L12.2441 10.5297H15.3662L21.236 19.058L22.1266 20.3517L29.77 31.4566H26.6477ZM31.0606 30.5689L23.1825 19.1234L22.2917 17.8291L16.6563 9.64193L16.1892 8.96336H9.2644L10.9533 11.4176L18.4463 22.3047L19.337 23.5977L25.3575 32.3453L25.8246 33.023H32.7496L31.0606 30.5689Z" fill="#E7E7E7"/>
<path d="M19.5021 21.0752L20.3929 22.3689L19.3369 23.5978L11.2352 33.023H9.2373L18.4462 22.3047L19.5021 21.0752Z" fill="#E7E7E7"/>
<path d="M31.9156 8.96337L23.1824 19.1235L22.1264 20.3517L21.2358 19.058L22.2916 17.8291L28.2076 10.9433L29.9178 8.96337H31.9156Z" fill="#E7E7E7"/>
</svg>
